<svg xmlns="http://www.w3.org/2000/svg" xmlns:xlink="http://www.w3.org/1999/xlink" width="500" zoomAndPan="magnify" viewBox="0 0 375 374.999991" height="500" preserveAspectRatio="xMidYMid meet" version="1.0"><defs><clipPath id="43f6aa46a3"><path d="M 14.242188 9.644531 L 360.742188 9.644531 L 360.742188 365.144531 L 14.242188 365.144531 Z M 14.242188 9.644531 " clip-rule="nonzero"/></clipPath></defs><g clip-path="url(#43f6aa46a3)"><path fill="#030a1d" d="M 69.699219 236.769531 L 140.53125 236.769531 L 140.53125 235.230469 C 125.132812 235.230469 118.972656 225.992188 118.972656 202.125 L 118.972656 128.984375 L 200.585938 229.839844 L 200.585938 263.71875 C 200.585938 324.539062 168.25 360.726562 113.585938 360.726562 C 60.460938 360.726562 18.886719 325.308594 18.886719 274.496094 C 18.886719 238.308594 39.671875 210.59375 58.152344 203.664062 C 55.839844 205.972656 55.070312 208.285156 55.070312 211.363281 C 55.070312 217.523438 60.460938 222.910156 66.621094 222.910156 C 72.78125 222.910156 78.167969 217.523438 78.167969 211.363281 C 78.167969 204.433594 72.78125 199.8125 66.621094 199.8125 L 65.851562 199.8125 C 41.214844 199.8125 14.265625 232.921875 14.265625 274.496094 C 14.265625 329.929688 61.230469 365.34375 118.203125 365.34375 C 178.257812 365.34375 220.601562 325.308594 227.53125 262.945312 L 237.539062 275.265625 C 256.019531 298.363281 282.964844 316.070312 316.839844 316.070312 C 341.480469 316.070312 355.335938 306.832031 360.726562 302.210938 L 360.726562 299.902344 C 354.566406 304.523438 343.019531 306.832031 332.238281 306.832031 C 308.371094 306.832031 291.433594 296.054688 261.40625 259.867188 L 228.300781 220.601562 L 228.300781 98.957031 C 228.300781 76.628906 235.230469 65.851562 249.859375 65.851562 L 249.859375 64.308594 L 179.027344 64.308594 L 179.027344 65.851562 C 193.65625 65.851562 200.585938 75.859375 200.585938 98.957031 L 200.585938 187.496094 L 132.0625 104.34375 L 185.1875 35.824219 C 198.273438 18.886719 210.59375 11.1875 222.914062 11.1875 L 222.914062 9.644531 L 178.257812 9.644531 L 178.257812 11.1875 C 185.957031 11.1875 188.265625 13.496094 188.265625 18.113281 C 188.265625 21.964844 185.957031 28.125 181.335938 33.511719 L 118.972656 112.042969 L 118.972656 44.292969 C 118.972656 20.425781 125.132812 11.1875 140.53125 11.1875 L 140.53125 9.644531 L 69.699219 9.644531 L 69.699219 11.1875 C 85.097656 11.1875 91.257812 20.425781 91.257812 44.292969 L 91.257812 202.125 C 91.257812 225.992188 85.097656 235.230469 69.699219 235.230469 Z M 69.699219 236.769531 " fill-opacity="1" fill-rule="nonzero"/></g></svg>