<svg xmlns="http://www.w3.org/2000/svg" version="1.1" xmlns:xlink="http://www.w3.org/1999/xlink" width="1000" height="1000"><g clip-path="url(#SvgjsClipPath1021)"><rect width="1000" height="1000" fill="#030a1d"></rect><g transform="matrix(1.4,0,0,1.4,150,150)"><svg xmlns="http://www.w3.org/2000/svg" version="1.1" xmlns:xlink="http://www.w3.org/1999/xlink" width="500" height="500"><svg xmlns="http://www.w3.org/2000/svg" xmlns:xlink="http://www.w3.org/1999/xlink" width="500" zoomAndPan="magnify" viewBox="0 0 375 374.999991" height="500" preserveAspectRatio="xMidYMid meet" version="1.0"><defs><clipPath id="41a4b2a4da"><path d="M 66.796875 55.648438 L 315.796875 55.648438 L 315.796875 311.398438 L 66.796875 311.398438 Z M 66.796875 55.648438 " clip-rule="nonzero"></path></clipPath><clipPath id="SvgjsClipPath1021"><rect width="1000" height="1000" x="0" y="0" rx="250" ry="250"></rect></clipPath></defs><rect x="-37.5" width="450" fill="#ffffff" y="-37.499999" height="449.999989" fill-opacity="1"></rect><rect x="-37.5" width="450" fill="#030a1d" y="-37.499999" height="449.999989" fill-opacity="1"></rect><g clip-path="url(#41a4b2a4da)"><path fill="#ffffff" d="M 106.667969 218.953125 L 157.597656 218.953125 L 157.597656 217.84375 C 146.527344 217.84375 142.097656 211.203125 142.097656 194.039062 L 142.097656 141.453125 L 200.777344 213.96875 L 200.777344 238.328125 C 200.777344 282.058594 177.527344 308.078125 138.222656 308.078125 C 100.027344 308.078125 70.132812 282.613281 70.132812 246.078125 C 70.132812 220.058594 85.082031 200.128906 98.367188 195.148438 C 96.707031 196.808594 96.152344 198.46875 96.152344 200.683594 C 96.152344 205.113281 100.027344 208.988281 104.457031 208.988281 C 108.882812 208.988281 112.757812 205.113281 112.757812 200.683594 C 112.757812 195.703125 108.882812 192.378906 104.457031 192.378906 L 103.902344 192.378906 C 86.1875 192.378906 66.8125 216.183594 66.8125 246.078125 C 66.8125 285.933594 100.582031 311.398438 141.542969 311.398438 C 184.722656 311.398438 215.167969 282.613281 220.152344 237.773438 L 227.347656 246.628906 C 240.632812 263.238281 260.007812 275.96875 284.367188 275.96875 C 302.082031 275.96875 312.042969 269.328125 315.917969 266.003906 L 315.917969 264.34375 C 311.492188 267.664062 303.1875 269.328125 295.4375 269.328125 C 278.277344 269.328125 266.097656 261.578125 244.507812 235.558594 L 220.707031 207.328125 L 220.707031 119.863281 C 220.707031 103.808594 225.6875 96.058594 236.207031 96.058594 L 236.207031 94.953125 L 185.277344 94.953125 L 185.277344 96.058594 C 195.792969 96.058594 200.777344 103.253906 200.777344 119.863281 L 200.777344 183.523438 L 151.507812 123.738281 L 189.707031 74.46875 C 199.117188 62.289062 207.972656 56.753906 216.832031 56.753906 L 216.832031 55.648438 L 184.722656 55.648438 L 184.722656 56.753906 C 190.257812 56.753906 191.917969 58.414062 191.917969 61.738281 C 191.917969 64.503906 190.257812 68.933594 186.9375 72.808594 L 142.097656 129.273438 L 142.097656 80.558594 C 142.097656 63.398438 146.527344 56.753906 157.597656 56.753906 L 157.597656 55.648438 L 106.667969 55.648438 L 106.667969 56.753906 C 117.742188 56.753906 122.167969 63.398438 122.167969 80.558594 L 122.167969 194.039062 C 122.167969 211.203125 117.742188 217.84375 106.667969 217.84375 Z M 106.667969 218.953125 " fill-opacity="1" fill-rule="nonzero"></path></g></svg></svg></g></g></svg>