<svg xmlns="http://www.w3.org/2000/svg" version="1.1" xmlns:xlink="http://www.w3.org/1999/xlink" width="1000" height="1000"><g clip-path="url(#SvgjsClipPath1017)"><rect width="1000" height="1000" fill="#02173b"></rect><g transform="matrix(1.4,0,0,1.4,150,150)"><svg xmlns="http://www.w3.org/2000/svg" version="1.1" xmlns:xlink="http://www.w3.org/1999/xlink" width="500" height="500"><svg xmlns="http://www.w3.org/2000/svg" xmlns:xlink="http://www.w3.org/1999/xlink" width="500" zoomAndPan="magnify" viewBox="0 0 375 374.999991" height="500" preserveAspectRatio="xMidYMid meet" version="1.0"><defs><clipPath id="aeefa7b52b"><path d="M 38.464844 74.800781 L 171.679688 74.800781 L 171.679688 280.511719 L 38.464844 280.511719 Z M 38.464844 74.800781 " clip-rule="nonzero"></path></clipPath><clipPath id="7e801e75ed"><path d="M 80.414062 74.800781 L 171.34375 74.800781 L 171.34375 80.332031 L 155.921875 80.332031 L 155.921875 205.679688 C 155.921875 231.804688 150.253906 250.804688 138.871094 262.6875 C 127.488281 274.570312 110.4375 280.511719 87.667969 280.511719 C 72.566406 280.511719 60.59375 277.515625 51.707031 271.53125 C 42.910156 265.5 38.464844 257.109375 38.464844 246.269531 C 38.464844 237.972656 40.6875 231.441406 45.175781 226.679688 C 49.664062 221.960938 55.742188 219.558594 63.496094 219.558594 C 71.253906 219.558594 77.011719 221.601562 80.820312 225.636719 C 84.632812 229.71875 86.535156 234.570312 86.535156 240.285156 C 86.535156 246 85.492188 251.757812 83.453125 257.5625 L 72.566406 257.5625 C 70.890625 260.464844 70.027344 263.230469 70.027344 265.816406 C 70.027344 268.445312 71.296875 270.667969 73.792969 272.484375 C 76.332031 274.34375 79.597656 275.25 83.722656 275.25 C 91.160156 275.25 95.96875 272.210938 98.144531 266.089844 C 100.277344 260.011719 101.367188 246.816406 101.367188 226.496094 L 101.367188 80.332031 L 80.414062 80.332031 Z M 80.414062 74.800781 " clip-rule="nonzero"></path></clipPath><clipPath id="ea3407fd0c"><path d="M 0.464844 0.800781 L 133.359375 0.800781 L 133.359375 206.511719 L 0.464844 206.511719 Z M 0.464844 0.800781 " clip-rule="nonzero"></path></clipPath><clipPath id="599fdba15d"><path d="M 42.414062 0.800781 L 133.34375 0.800781 L 133.34375 6.332031 L 117.921875 6.332031 L 117.921875 131.679688 C 117.921875 157.804688 112.253906 176.804688 100.871094 188.6875 C 89.488281 200.570312 72.4375 206.511719 49.667969 206.511719 C 34.566406 206.511719 22.59375 203.515625 13.707031 197.53125 C 4.910156 191.5 0.464844 183.109375 0.464844 172.269531 C 0.464844 163.972656 2.6875 157.441406 7.175781 152.679688 C 11.664062 147.960938 17.742188 145.558594 25.496094 145.558594 C 33.253906 145.558594 39.011719 147.601562 42.820312 151.636719 C 46.632812 155.71875 48.535156 160.570312 48.535156 166.285156 C 48.535156 172 47.492188 177.757812 45.453125 183.5625 L 34.566406 183.5625 C 32.890625 186.464844 32.027344 189.230469 32.027344 191.816406 C 32.027344 194.445312 33.296875 196.667969 35.792969 198.484375 C 38.332031 200.34375 41.597656 201.25 45.722656 201.25 C 53.160156 201.25 57.96875 198.210938 60.144531 192.089844 C 62.277344 186.011719 63.367188 172.816406 63.367188 152.496094 L 63.367188 6.332031 L 42.414062 6.332031 Z M 42.414062 0.800781 " clip-rule="nonzero"></path></clipPath><clipPath id="48e1c0886f"><rect x="0" width="134" y="0" height="207"></rect></clipPath><clipPath id="7b177c96a4"><path d="M 162.890625 94.488281 L 337 94.488281 L 337 300.414062 L 162.890625 300.414062 Z M 162.890625 94.488281 " clip-rule="nonzero"></path></clipPath><clipPath id="5b6851b047"><path d="M 272.707031 271.164062 L 232.167969 182.21875 L 217.34375 195.527344 L 217.34375 268.433594 C 217.34375 291.425781 224.296875 297.78125 235.492188 300.199219 L 162.890625 300.199219 C 174.085938 297.78125 181.042969 291.425781 181.042969 268.433594 L 181.042969 126.253906 C 181.042969 103.261719 174.085938 96.910156 162.890625 94.488281 L 235.5 94.488281 C 224.304688 96.910156 217.34375 103.261719 217.34375 126.253906 L 217.34375 177.382812 L 276.03125 118.691406 C 283.597656 109.917969 274.519531 98.722656 264.234375 94.488281 L 326.558594 94.488281 C 321.113281 96.910156 311.429688 100.84375 295.09375 116.875 L 240.640625 171.632812 C 244.875 180.105469 257.886719 181.917969 274.828125 177.984375 C 272.40625 180.105469 271.195312 183.429688 273.617188 188.871094 L 312.339844 271.457031 C 322.023438 292.332031 329.886719 297.78125 336.542969 300.195312 L 267.566406 300.195312 C 278.753906 297.78125 282.085938 292.335938 272.707031 271.164062 Z M 272.707031 271.164062 " clip-rule="nonzero"></path></clipPath><clipPath id="747141a906"><path d="M 0.890625 0.488281 L 174.71875 0.488281 L 174.71875 206.238281 L 0.890625 206.238281 Z M 0.890625 0.488281 " clip-rule="nonzero"></path></clipPath><clipPath id="5ec9c6742c"><path d="M 110.707031 177.164062 L 70.167969 88.21875 L 55.34375 101.527344 L 55.34375 174.433594 C 55.34375 197.425781 62.296875 203.78125 73.492188 206.199219 L 0.890625 206.199219 C 12.085938 203.78125 19.042969 197.425781 19.042969 174.433594 L 19.042969 32.253906 C 19.042969 9.261719 12.085938 2.910156 0.890625 0.488281 L 73.5 0.488281 C 62.304688 2.910156 55.34375 9.261719 55.34375 32.253906 L 55.34375 83.382812 L 114.03125 24.691406 C 121.597656 15.917969 112.519531 4.722656 102.234375 0.488281 L 164.558594 0.488281 C 159.113281 2.910156 149.429688 6.84375 133.09375 22.875 L 78.640625 77.632812 C 82.875 86.105469 95.886719 87.917969 112.828125 83.984375 C 110.40625 86.105469 109.195312 89.429688 111.617188 94.871094 L 150.339844 177.457031 C 160.023438 198.332031 167.886719 203.78125 174.542969 206.195312 L 105.566406 206.195312 C 116.753906 203.78125 120.085938 198.335938 110.707031 177.164062 Z M 110.707031 177.164062 " clip-rule="nonzero"></path></clipPath><clipPath id="21cc88e5f6"><rect x="0" width="175" y="0" height="207"></rect></clipPath><clipPath id="SvgjsClipPath1017"><rect width="1000" height="1000" x="0" y="0" rx="350" ry="350"></rect></clipPath></defs><g clip-path="url(#aeefa7b52b)"><g clip-path="url(#7e801e75ed)"><g transform="matrix(1, 0, 0, 1, 38, 74)"><g clip-path="url(#48e1c0886f)"><g clip-path="url(#ea3407fd0c)"><g clip-path="url(#599fdba15d)"><path fill="#ffffff" d="M 0.464844 0.800781 L 133.226562 0.800781 L 133.226562 206.511719 L 0.464844 206.511719 Z M 0.464844 0.800781 " fill-opacity="1" fill-rule="nonzero"></path></g></g></g></g></g></g><g clip-path="url(#7b177c96a4)"><g clip-path="url(#5b6851b047)"><g transform="matrix(1, 0, 0, 1, 162, 94)"><g clip-path="url(#21cc88e5f6)"><g clip-path="url(#747141a906)"><g clip-path="url(#5ec9c6742c)"><path fill="#ffffff" d="M 0.890625 0.488281 L 174.535156 0.488281 L 174.535156 206.414062 L 0.890625 206.414062 Z M 0.890625 0.488281 " fill-opacity="1" fill-rule="nonzero"></path></g></g></g></g></g></g></svg></svg></g></g></svg>